<svg width="262" height="48" viewBox="0 0 262 48" fill="none" xmlns="http://www.w3.org/2000/svg">
<path d="M0 0H24C37.2548 0 48 10.7452 48 24C48 37.2548 37.2548 48 24 48H0V0Z" fill="#4D4DFF"/>
<path d="M24.5 39H23.5C23.5 30.99 17.01 24.5 9 24.5V23.5C17.01 23.5 23.5 17.01 23.5 9H24.5C24.5 17.01 30.99 23.5 39 23.5V24.5C30.99 24.5 24.5 30.99 24.5 39Z" fill="white"/>
<path d="M66.404 16.82H62.264V31.616H66.62C71.696 31.616 73.712 28.88 73.712 24.02C73.712 18.944 71.588 16.82 66.404 16.82ZM58.16 35V13.4H66.944C74.396 13.4 77.816 17.18 77.816 24.02C77.816 30.86 73.712 35 66.944 35H58.16ZM87.9244 20.636C85.2964 20.636 83.7484 22.04 83.3884 25.064H92.0644C91.9204 22.148 90.6244 20.636 87.9244 20.636ZM88.0324 35.432C82.8484 35.432 79.5004 32.408 79.5004 26.756C79.5004 21.032 82.7404 17.648 88.0324 17.648C93.1444 17.648 95.6284 20.744 95.6284 25.388C95.6284 26.036 95.6284 26.792 95.5564 27.656H83.3524C83.6404 30.716 85.1884 32.264 88.0684 32.264C90.7684 32.264 91.7044 30.968 92.1724 29.348L95.4844 30.284C94.6924 33.344 92.5684 35.432 88.0324 35.432ZM107.574 35H102.462L96.1977 18.08H100.41L102.498 24.632C103.254 27.044 104.046 29.384 104.694 31.688H105.414C106.062 29.384 106.854 26.972 107.61 24.632L109.698 18.08H113.802L107.574 35ZM123.648 16.82H119.508V31.616H123.864C128.94 31.616 130.956 28.88 130.956 24.02C130.956 18.944 128.832 16.82 123.648 16.82ZM115.404 35V13.4H124.188C131.64 13.4 135.06 17.18 135.06 24.02C135.06 30.86 130.956 35 124.188 35H115.404ZM137.805 41.3C136.689 41.3 135.933 41.192 135.141 41.084L135.753 37.592C136.473 37.736 137.193 37.844 137.913 37.844C139.821 37.844 140.829 37.376 141.945 34.82L135.141 18.08H139.389L141.369 24.2C142.053 26.324 142.989 29.132 143.709 31.58H144.285C145.041 29.06 145.869 26.36 146.517 24.272L148.353 18.08H152.493L145.509 35.216C143.781 39.428 141.693 41.3 137.805 41.3ZM158.013 25.424V35H154.161V18.08H157.941V22.544H158.265C159.201 19.412 161.361 17.648 164.205 17.648C167.733 17.648 169.425 20.024 169.425 23.696V35H165.573V24.704C165.573 22.652 164.673 21.14 162.333 21.14C159.741 21.14 158.013 22.868 158.013 25.424ZM178.578 32.336C181.278 32.336 183.078 30.752 183.078 28.628V27.944H178.686C176.742 27.944 175.626 28.664 175.626 30.068C175.626 31.292 176.382 32.336 178.578 32.336ZM183.258 35V30.968H182.862C181.998 33.704 180.054 35.36 177.066 35.36C174.042 35.36 171.918 33.92 171.918 30.608C171.918 27.584 173.754 25.388 178.038 25.388H183.078V24.236C183.078 22.04 182.178 20.78 179.802 20.78C177.822 20.78 176.67 21.788 176.238 23.768L172.566 22.94C173.214 19.736 175.626 17.684 179.946 17.684C184.842 17.684 186.93 19.988 186.93 24.2V35H183.258ZM194.348 25.424V35H190.496V18.08H194.276V22.544H194.6C195.536 19.376 197.66 17.648 200.54 17.648C203.708 17.648 205.292 19.592 205.544 22.724H205.94C206.768 19.484 208.748 17.648 211.88 17.648C215.444 17.648 217.172 20.024 217.172 23.696V35H213.284V24.704C213.284 22.652 212.348 21.14 210.08 21.14C207.416 21.14 205.76 22.868 205.76 25.424V35H201.908V24.704C201.908 22.652 200.936 21.14 198.668 21.14C196.076 21.14 194.348 22.868 194.348 25.424ZM224.971 15.2H220.759V12.068H224.971V15.2ZM224.791 35H220.903V18.08H224.791V35ZM240.393 24.668C239.889 22.508 238.881 21.068 236.217 21.068C233.445 21.068 231.717 22.832 231.717 26.54C231.717 29.96 233.301 32.048 236.325 32.048C239.061 32.048 239.997 30.356 240.501 28.304L244.065 29.168C243.381 33.092 241.005 35.468 236.361 35.468C231.033 35.468 227.757 32.372 227.757 26.684C227.757 20.996 231.105 17.648 236.289 17.648C241.149 17.648 243.345 19.952 244.029 23.984L240.393 24.668ZM253.522 35.468C248.05 35.468 246.25 33.236 245.638 29.996L249.13 29.276C249.67 31.328 250.858 32.624 253.594 32.624C255.646 32.624 256.726 31.904 256.726 30.464C256.726 29.132 255.79 28.484 252.442 27.872C247.942 26.972 246.358 25.46 246.358 22.652C246.358 19.592 248.59 17.648 253.09 17.648C257.734 17.648 259.318 19.556 260.002 22.544L256.51 23.3C256.042 21.212 255.034 20.42 253.018 20.42C251.038 20.42 250.03 21.176 250.03 22.436C250.03 23.624 250.75 24.452 253.954 25.028C258.958 25.964 260.47 27.656 260.47 30.32C260.47 33.452 258.382 35.468 253.522 35.468Z" fill="#f0f0f0"/>
</svg>
