<svg xmlns="http://www.w3.org/2000/svg" version="1.1" xmlns:xlink="http://www.w3.org/1999/xlink" width="512" height="512" x="0" y="0" viewBox="0 0 192.222 237.554" style="enable-background:new 0 0 512 512" xml:space="preserve" class=""><g><path d="M187.06 150.336c-12.61-37.293-30.792-68.584-41.767-85.645l-5.537 2.195c-3.973 6.12-10.5 17.168-13.6 27.967v24.62l6.404 78.5c12.25-1.82 24.91-3.733 36.068-4.43-.388 5.175-1.282 9.685-2.812 13.284 0 0 40.422.23 21.243-56.49zM66.064 94.853c-3.101-10.801-9.626-21.849-13.598-27.967l-5.536-2.195c-10.976 17.061-29.157 48.352-41.767 85.645-19.178 56.72 21.244 56.491 21.244 56.491-1.53-3.6-2.424-8.11-2.812-13.284 11.157.697 23.818 2.61 36.068 4.43l6.402-78.5v-24.62zM96.111 148.467l-1.862 3.455-4.058 49.76c2.069.122 4.055.195 5.92.195 1.866 0 3.852-.073 5.92-.195l-4.057-49.762z" fill="#5cb85c" opacity="1" data-original="#000000" class=""></path><circle cx="96.111" cy="23.065" r="22.5" fill="#5cb85c" opacity="1" data-original="#000000" class=""></circle><path d="M123.156 94.437c3.336-11.934 10.806-24.212 14.61-29.989L171.03 51.26c.018-.007.034-.016.05-.023.116-.046.227-.103.339-.155.14-.064.283-.126.418-.198.089-.047.174-.102.26-.152.154-.09.307-.178.453-.276.068-.046.134-.097.201-.146.154-.112.308-.224.453-.345.063-.053.12-.108.18-.162.142-.125.281-.252.413-.387.061-.063.12-.13.18-.195a7.553 7.553 0 0 0 .987-1.333c.079-.135.154-.27.226-.41.03-.057.064-.11.092-.167.024-.05.04-.1.063-.149.063-.138.122-.279.177-.422a6.576 6.576 0 0 0 .26-.778c.03-.104.06-.209.085-.314.04-.17.07-.341.099-.513.014-.09.033-.179.045-.269.027-.203.042-.407.053-.613.003-.06.011-.121.013-.182.008-.25.003-.503-.014-.755v-.051a7.98 7.98 0 0 0-.285-1.625c-.025-.087-.06-.172-.088-.26-.054-.168-.105-.338-.172-.505-.002-.005-.005-.009-.006-.014l-.008-.024c-2.227-5.533-14.085-33.445-28.915-39.51-4.316-1.767-8.727-1.769-12.755-.01a7.998 7.998 0 0 0-4.127 10.532 8.003 8.003 0 0 0 10.459 4.162c1.204.193 5.708 3.078 12.232 14.152a129.767 129.767 0 0 1 4.599 8.582l-5.075 1.493c-10.264-1.039-17.762 3.26-21.292 5.889-9.439-2.478-14.816 2.009-17.286 5.135H78.877c-2.47-3.127-7.848-7.613-17.286-5.135-3.53-2.63-11.028-6.928-21.292-5.889l-5.075-1.493c1.28-2.61 2.844-5.604 4.598-8.582 6.525-11.074 11.029-13.96 12.233-14.152a8 8 0 0 0 6.332-14.693c-4.028-1.76-8.44-1.758-12.755.009-14.83 6.065-26.689 33.977-28.915 39.51l-.008.024-.007.014c-.066.167-.117.337-.172.506-.027.087-.062.172-.088.259a7.98 7.98 0 0 0-.284 1.625v.052a7.779 7.779 0 0 0-.014.754c.002.062.01.123.013.185.01.204.026.408.052.61.013.09.031.18.046.269.03.172.059.343.099.513.024.105.055.21.085.314a8 8 0 0 0 .136.451c.038.11.081.22.123.327.056.143.115.284.178.422.022.05.039.1.062.149.029.057.064.11.092.167a8.85 8.85 0 0 0 .4.693c.09.139.185.274.284.406.06.082.119.162.181.24.11.138.229.272.349.404.06.065.118.132.18.195.132.135.27.262.41.387.062.054.12.11.182.162.146.121.3.234.454.345.067.049.132.1.2.146.146.098.3.187.453.276.087.05.172.105.26.152.135.072.278.134.418.198.113.052.223.109.34.156l.05.022 33.265 13.189c3.803 5.776 11.272 18.054 14.608 29.988v25.159l-8.53 104.59c-.554 6.806 4.515 12.772 11.32 13.327s12.773-4.51 13.327-11.318l6.128-75.143 4.802-8.907 4.8 8.905 6.13 75.145c.554 6.808 6.523 11.873 13.328 11.318s11.873-6.52 11.318-13.327l-8.531-104.591V94.437z" fill="#5cb85c" opacity="1" data-original="#000000" class=""></path></g></svg>