<svg xmlns="http://www.w3.org/2000/svg" version="1.1" xmlns:xlink="http://www.w3.org/1999/xlink" width="512" height="512" x="0" y="0" viewBox="0 0 146.418 185.329" style="enable-background:new 0 0 512 512" xml:space="preserve" class=""><g><circle cx="123.917" cy="22.501" r="22.5" transform="rotate(-5.13 123.361 22.466)" fill="#c04646" opacity="1" data-original="#000000" class=""></circle><path d="M29.413 126.226 2.548 161.584c-4.177 5.498-3.107 13.34 2.39 17.516a12.443 12.443 0 0 0 7.553 2.548c3.774 0 7.504-1.702 9.963-4.939l29.6-38.959a12.498 12.498 0 0 0 2.535-8.117l-.76-17.117L27.723 88.2zM73.453 127.473a10.236 10.236 0 0 1-5.006-.792l7.094 47.974c.918 6.21 6.255 10.673 12.35 10.673.608 0 1.224-.045 1.843-.136 6.83-1.01 11.547-7.365 10.537-14.194l-8.367-56.587a12.5 12.5 0 0 0-3.845-7.318l-4.742-4.418-.537 14.914c-.187 5.156-4.196 9.405-9.327 9.884z" fill="#c04646" opacity="1" data-original="#000000" class=""></path><path d="M95.838 27.13a8.025 8.025 0 0 0-.552-1.54c-.34-1.378-.92-2.68-1.78-3.86-5.182-7.11-17.648-11.495-30.906-3.495-18.163 11.105-27.712 20.24-39.983 38.937-6.552 11.862-2.636 19.62 2.93 25.225a12.448 12.448 0 0 0 2.118 2.604l34.531 32.167c.001-.108-.008-.213-.004-.32l1.18-32.752-9.792-9.122c3.192-3.893 6.796-7.579 10.52-11.05l1.08-29.952c.186-5.156 4.201-9.405 9.337-9.884.438-.041.883-.053 1.323-.038 5.68.205 10.131 4.989 9.927 10.664l-.578 16.037L99.791 109.9a8.002 8.002 0 0 0 7.76 6.085c.635 0 1.28-.076 1.923-.236a7.999 7.999 0 0 0 5.85-9.683z" fill="#c04646" opacity="1" data-original="#000000" class=""></path><path d="M83.469 34.632a8 8 0 0 0-7.707-8.284c-4.415-.15-8.124 3.293-8.283 7.707L64.49 116.93a8 8 0 0 0 15.99.576zM100.039 133.403a1 1 0 0 0 1.25 1.561c1.852-1.483 2.877-3.198 3.045-5.1.26-2.937-1.668-5.178-1.75-5.272a.998.998 0 0 0-1.487-.017c-.34.368-.356.942-.02 1.331.014.017 1.456 1.72 1.263 3.798-.123 1.33-.897 2.576-2.301 3.699z" fill="#c04646" opacity="1" data-original="#000000" class=""></path><path d="M105.74 122.868a1.002 1.002 0 0 0-.174 1.402c.022.029 2.18 2.856 1.71 6.253-.306 2.225-1.668 4.248-4.055 6.01a1 1 0 0 0 1.19 1.608c2.841-2.102 4.474-4.58 4.85-7.37.574-4.243-2.01-7.592-2.12-7.733a.999.999 0 0 0-1.4-.17zM21.746 116.899a1 1 0 0 0-1.02-1.721c-2.041 1.209-3.296 2.764-3.729 4.624-.669 2.871.926 5.36.994 5.464a.999.999 0 0 0 1.47.226c.388-.317.484-.884.207-1.316-.012-.018-1.201-1.906-.719-3.937.308-1.3 1.25-2.425 2.797-3.34z" fill="#c04646" opacity="1" data-original="#000000" class=""></path><path d="M18.081 111.595c-3.108 1.683-5.072 3.91-5.836 6.617-1.162 4.122.927 7.8 1.016 7.955a.999.999 0 0 0 1.732-1c-.017-.031-1.758-3.133-.817-6.43.615-2.161 2.248-3.972 4.857-5.383a1 1 0 0 0-.952-1.76z" fill="#c04646" opacity="1" data-original="#000000" class=""></path></g></svg><svg xmlns="http://www.w3.org/2000/svg" width="400" height="400" viewBox="0 0 124 124" fill="none">
<rect width="124" height="124" rx="24" fill="#F97316"/>
<path d="M19.375 36.7818V100.625C19.375 102.834 21.1659 104.625 23.375 104.625H87.2181C90.7818 104.625 92.5664 100.316 90.0466 97.7966L26.2034 33.9534C23.6836 31.4336 19.375 33.2182 19.375 36.7818Z" fill="white"/>
<circle cx="63.2109" cy="37.5391" r="18.1641" fill="black"/>
<rect opacity="0.4" x="81.1328" y="80.7198" width="17.5687" height="17.3876" rx="4" transform="rotate(-45 81.1328 80.7198)" fill="#FDBA74"/>
</svg>